<svg xmlns="http://www.w3.org/2000/svg" width="900" height="230" viewBox="0 0 900 230" role="img" aria-labelledby="title desc"><title id="title">由 Profile 定义的 Agent 流程</title><desc id="desc">实线节点具有匹配的静态仓库证据；虚线节点尚未得到证明。</desc><rect width="100%" height="100%" fill="#0b1020"/><rect x="30.0" y="70" width="130" height="80" rx="12" fill="#121a2d" stroke="#67e8a5" stroke-width="2"/><text x="95.0" y="105" text-anchor="middle" fill="#e7edf8" font-family="system-ui" font-size="14">会话</text><text x="95.0" y="129" text-anchor="middle" fill="#67e8a5" font-family="system-ui" font-size="11">已有证据</text><path d="M 160.0 110 L 207.5 110" stroke="#667899" stroke-width="2"/><rect x="207.5" y="70" width="130" height="80" rx="12" fill="#121a2d" stroke="#67e8a5" stroke-width="2"/><text x="272.5" y="105" text-anchor="middle" fill="#e7edf8" font-family="system-ui" font-size="14">应用服务器</text><text x="272.5" y="129" text-anchor="middle" fill="#67e8a5" font-family="system-ui" font-size="11">已有证据</text><path d="M 337.5 110 L 385.0 110" stroke="#667899" stroke-width="2"/><rect x="385.0" y="70" width="130" height="80" rx="12" fill="#121a2d" stroke="#67e8a5" stroke-width="2"/><text x="450.0" y="105" text-anchor="middle" fill="#e7edf8" font-family="system-ui" font-size="14">沙箱</text><text x="450.0" y="129" text-anchor="middle" fill="#67e8a5" font-family="system-ui" font-size="11">已有证据</text><path d="M 515.0 110 L 562.5 110" stroke="#667899" stroke-width="2"/><rect x="562.5" y="70" width="130" height="80" rx="12" fill="#121a2d" stroke="#67e8a5" stroke-width="2"/><text x="627.5" y="105" text-anchor="middle" fill="#e7edf8" font-family="system-ui" font-size="14">事件</text><text x="627.5" y="129" text-anchor="middle" fill="#67e8a5" font-family="system-ui" font-size="11">已有证据</text><path d="M 692.5 110 L 740.0 110" stroke="#667899" stroke-width="2"/><rect x="740.0" y="70" width="130" height="80" rx="12" fill="#121a2d" stroke="#67e8a5" stroke-width="2"/><text x="805.0" y="105" text-anchor="middle" fill="#e7edf8" font-family="system-ui" font-size="14">验证</text><text x="805.0" y="129" text-anchor="middle" fill="#67e8a5" font-family="system-ui" font-size="11">已有证据</text></svg>
