<svg xmlns="http://www.w3.org/2000/svg" width="1600" height="1000" viewBox="0 0 1600 1000" role="img" aria-label="AET Project Architecture Panorama">
<defs>
<linearGradient id="bg" x1="0" y1="0" x2="1" y2="1"><stop stop-color="#070a12"/><stop offset=".55" stop-color="#0d1324"/><stop offset="1" stop-color="#07111c"/></linearGradient>
<radialGradient id="blueGlow"><stop stop-color="#2563eb" stop-opacity=".20"/><stop offset="1" stop-color="#2563eb" stop-opacity="0"/></radialGradient>
<radialGradient id="purpleGlow"><stop stop-color="#7c3aed" stop-opacity=".16"/><stop offset="1" stop-color="#7c3aed" stop-opacity="0"/></radialGradient>
<pattern id="grid" width="32" height="32" patternUnits="userSpaceOnUse"><path d="M32 0H0V32" fill="none" stroke="#334155" stroke-opacity=".18"/></pattern>
<filter id="shadow" x="-30%" y="-30%" width="160%" height="160%"><feDropShadow dx="0" dy="10" stdDeviation="14" flood-color="#000" flood-opacity=".35"/></filter>
<filter id="softGlow" x="-50%" y="-50%" width="200%" height="200%"><feGaussianBlur stdDeviation="5" result="b"/><feMerge><feMergeNode in="b"/><feMergeNode in="SourceGraphic"/></feMerge></filter>
<marker id="arrowBlue" markerWidth="10" markerHeight="8" refX="9" refY="4" orient="auto"><path d="M0 0L10 4L0 8Z" fill="#60a5fa"/></marker>
<marker id="arrowPurple" markerWidth="10" markerHeight="8" refX="9" refY="4" orient="auto"><path d="M0 0L10 4L0 8Z" fill="#c084fc"/></marker>
<marker id="arrowGreen" markerWidth="10" markerHeight="8" refX="9" refY="4" orient="auto"><path d="M0 0L10 4L0 8Z" fill="#34d399"/></marker>
<marker id="arrowAmber" markerWidth="10" markerHeight="8" refX="9" refY="4" orient="auto"><path d="M0 0L10 4L0 8Z" fill="#f59e0b"/></marker>
<style>text{font-family:Inter,-apple-system,BlinkMacSystemFont,"Segoe UI","PingFang SC","Microsoft YaHei",sans-serif}.mono{font-family:"SFMono-Regular",Consolas,"Liberation Mono",monospace}</style>
</defs>
<rect width="1600" height="1000" fill="url(#bg)"/>
<circle data-graph-role="decoration" data-owner="canvas" cx="288" cy="250" r="512" fill="url(#blueGlow)"/>
<circle data-graph-role="decoration" data-owner="canvas" cx="1312" cy="550" r="448" fill="url(#purpleGlow)"/>
<rect width="1600" height="1000" fill="url(#grid)"/>
<text x="60" y="60" font-size="34" font-weight="800" fill="#f8fafc">AET Project Architecture Panorama</text>
<text x="60" y="88" font-size="16" fill="#94a3b8">Four daily entry points, one evidence protocol; LLM investigation and deterministic validation have separate authority</text>
<text x="1540" y="62" text-anchor="end" class="mono" font-size="13" fill="#34d399">AET QUICK / LAB · v1.13+</text>
<rect x="40" y="115" width="1520" height="150" rx="24" fill="#ffffff" fill-opacity=".025" stroke="#60a5fa" stroke-opacity=".32" stroke-dasharray="7 8"/>
<circle cx="70" cy="143" r="16" fill="#60a5fa" fill-opacity=".18" stroke="#60a5fa"/>
<text x="70" y="149" text-anchor="middle" font-size="13" font-weight="800" fill="#60a5fa">01</text>
<text x="98" y="150" font-size="18" font-weight="750" fill="#f8fafc">User-facing entry points</text>
<rect x="40" y="295" width="1520" height="200" rx="24" fill="#ffffff" fill-opacity=".025" stroke="#c084fc" stroke-opacity=".32" stroke-dasharray="7 8"/>
<circle cx="70" cy="323" r="16" fill="#c084fc" fill-opacity=".18" stroke="#c084fc"/>
<text x="70" y="329" text-anchor="middle" font-size="13" font-weight="800" fill="#c084fc">02</text>
<text x="98" y="330" font-size="18" font-weight="750" fill="#f8fafc">Quick runtime</text>
<rect x="40" y="525" width="1520" height="190" rx="24" fill="#ffffff" fill-opacity=".025" stroke="#34d399" stroke-opacity=".32" stroke-dasharray="7 8"/>
<circle cx="70" cy="553" r="16" fill="#34d399" fill-opacity=".18" stroke="#34d399"/>
<text x="70" y="559" text-anchor="middle" font-size="13" font-weight="800" fill="#34d399">03</text>
<text x="98" y="560" font-size="18" font-weight="750" fill="#f8fafc">Shared evidence and contracts</text>
<rect x="40" y="745" width="1520" height="190" rx="24" fill="#ffffff" fill-opacity=".025" stroke="#f59e0b" stroke-opacity=".32" stroke-dasharray="7 8"/>
<circle cx="70" cy="773" r="16" fill="#f59e0b" fill-opacity=".18" stroke="#f59e0b"/>
<text x="70" y="779" text-anchor="middle" font-size="13" font-weight="800" fill="#f59e0b">04</text>
<text x="98" y="780" font-size="18" font-weight="750" fill="#f8fafc">Explicit opt-in AET Lab</text>
<g filter="url(#shadow)">
<rect x="70" y="165" width="320" height="96" rx="18" fill="#111827" fill-opacity=".86" stroke="#ffffff" stroke-opacity=".12"/>
<rect x="70" y="165" width="5" height="96" rx="2.5" fill="#60a5fa"/>
<text x="94" y="199" font-size="19" font-weight="700" fill="#f8fafc">Developer request</text>
<text x="94" y="226" font-size="14" fill="#94a3b8">goal · constraints · explicit authority</text>
</g>
<g filter="url(#shadow)">
<rect x="430" y="165" width="320" height="96" rx="18" fill="#111827" fill-opacity=".86" stroke="#ffffff" stroke-opacity=".12"/>
<rect x="430" y="165" width="5" height="96" rx="2.5" fill="#c084fc"/>
<text x="454" y="199" font-size="19" font-weight="700" fill="#f8fafc">Four Quick Skills</text>
<text x="454" y="226" font-size="14" fill="#94a3b8">Check · Scope · Proof · Fresh</text>
<text class="mono" x="454" y="245" font-size="12" fill="#c084fc">skills/aet-*</text>
</g>
<g filter="url(#shadow)">
<rect x="790" y="165" width="320" height="96" rx="18" fill="#111827" fill-opacity=".86" stroke="#ffffff" stroke-opacity=".12"/>
<rect x="790" y="165" width="5" height="96" rx="2.5" fill="#34d399"/>
<text x="814" y="199" font-size="19" font-weight="700" fill="#f8fafc">Agent Host</text>
<text x="814" y="226" font-size="14" fill="#94a3b8">LLM plans authorized tool calls</text>
<text class="mono" x="814" y="245" font-size="12" fill="#34d399">skills/*/SKILL.md</text>
</g>
<g filter="url(#shadow)">
<rect x="1150" y="165" width="340" height="96" rx="18" fill="#111827" fill-opacity=".86" stroke="#ffffff" stroke-opacity=".12"/>
<rect x="1150" y="165" width="5" height="96" rx="2.5" fill="#f59e0b"/>
<text x="1174" y="199" font-size="19" font-weight="700" fill="#f8fafc">Human decision</text>
<text x="1174" y="226" font-size="14" fill="#94a3b8">fix · split · verify · explicitly enter Lab</text>
</g>
<g filter="url(#shadow)">
<rect x="70" y="355" width="320" height="104" rx="18" fill="#111827" fill-opacity=".86" stroke="#ffffff" stroke-opacity=".12"/>
<rect x="70" y="355" width="5" height="104" rx="2.5" fill="#60a5fa"/>
<text x="94" y="389" font-size="19" font-weight="700" fill="#f8fafc">CLI routing &amp; authority</text>
<text x="94" y="416" font-size="14" fill="#94a3b8">arguments · language · command boundary</text>
<text class="mono" x="94" y="443" font-size="12" fill="#60a5fa">src/aet/cli.py</text>
</g>
<g filter="url(#shadow)">
<rect x="430" y="355" width="320" height="104" rx="18" fill="#111827" fill-opacity=".86" stroke="#ffffff" stroke-opacity=".12"/>
<rect x="430" y="355" width="5" height="104" rx="2.5" fill="#c084fc"/>
<text x="454" y="389" font-size="19" font-weight="700" fill="#f8fafc">Quick handlers &amp; preflight</text>
<text x="454" y="416" font-size="14" fill="#94a3b8">minimal facts · bounded result</text>
<text class="mono" x="454" y="443" font-size="12" fill="#c084fc">src/aet/quick/*</text>
</g>
<g filter="url(#shadow)">
<rect x="790" y="355" width="320" height="104" rx="18" fill="#111827" fill-opacity=".86" stroke="#ffffff" stroke-opacity=".12"/>
<rect x="790" y="355" width="5" height="104" rx="2.5" fill="#34d399"/>
<text x="814" y="389" font-size="19" font-weight="700" fill="#f8fafc">Investigation &amp; record</text>
<text x="814" y="416" font-size="14" fill="#94a3b8">intent · counter-case · tool results</text>
<text class="mono" x="814" y="443" font-size="12" fill="#34d399">investigation/* · ledger.py</text>
</g>
<g filter="url(#shadow)">
<rect x="1150" y="355" width="340" height="104" rx="18" fill="#111827" fill-opacity=".86" stroke="#ffffff" stroke-opacity=".12"/>
<rect x="1150" y="355" width="5" height="104" rx="2.5" fill="#f59e0b"/>
<text x="1174" y="389" font-size="19" font-weight="700" fill="#f8fafc">Grounding &amp; narrative</text>
<text x="1174" y="416" font-size="14" fill="#94a3b8">references · authority · strength · language</text>
<text class="mono" x="1174" y="443" font-size="12" fill="#f59e0b">grounding.py · narrative/*</text>
</g>
<g filter="url(#shadow)">
<rect x="70" y="585" width="320" height="98" rx="18" fill="#111827" fill-opacity=".86" stroke="#ffffff" stroke-opacity=".12"/>
<rect x="70" y="585" width="5" height="98" rx="2.5" fill="#34d399"/>
<text x="94" y="619" font-size="19" font-weight="700" fill="#f8fafc">Command &amp; authority contracts</text>
<text x="94" y="646" font-size="14" fill="#94a3b8">budgets · language · stop rules</text>
<text class="mono" x="94" y="667" font-size="12" fill="#34d399">schemas/command-budget* · cli.py</text>
</g>
<g filter="url(#shadow)">
<rect x="430" y="585" width="320" height="98" rx="18" fill="#111827" fill-opacity=".86" stroke="#ffffff" stroke-opacity=".12"/>
<rect x="430" y="585" width="5" height="98" rx="2.5" fill="#60a5fa"/>
<text x="454" y="619" font-size="19" font-weight="700" fill="#f8fafc">Evidence, proof &amp; freshness</text>
<text x="454" y="646" font-size="14" fill="#94a3b8">PASS · FAIL · UNKNOWN · file binding</text>
<text class="mono" x="454" y="667" font-size="12" fill="#60a5fa">evidence.py · quick/proof.py · fresh.py</text>
</g>
<g filter="url(#shadow)">
<rect x="790" y="585" width="320" height="98" rx="18" fill="#111827" fill-opacity=".86" stroke="#ffffff" stroke-opacity=".12"/>
<rect x="790" y="585" width="5" height="98" rx="2.5" fill="#c084fc"/>
<text x="814" y="619" font-size="19" font-weight="700" fill="#f8fafc">Investigation contracts &amp; schemas</text>
<text x="814" y="646" font-size="14" fill="#94a3b8">references · conflicts · hypotheses · budget</text>
<text class="mono" x="814" y="667" font-size="12" fill="#c084fc">schemas/investigation-*</text>
</g>
<g filter="url(#shadow)">
<rect x="1150" y="585" width="340" height="98" rx="18" fill="#111827" fill-opacity=".86" stroke="#ffffff" stroke-opacity=".12"/>
<rect x="1150" y="585" width="5" height="98" rx="2.5" fill="#f59e0b"/>
<text x="1174" y="619" font-size="19" font-weight="700" fill="#f8fafc">Narrative, stop policy &amp; tests</text>
<text x="1174" y="646" font-size="14" fill="#94a3b8">bilingual output · rejection paths · evaluation</text>
<text class="mono" x="1174" y="667" font-size="12" fill="#f59e0b">narrative/* · tests/* · eval/*</text>
</g>
<g filter="url(#shadow)">
<rect x="70" y="825" width="320" height="88" rx="18" fill="#111827" fill-opacity=".86" stroke="#ffffff" stroke-opacity=".12"/>
<rect x="70" y="825" width="5" height="88" rx="2.5" fill="#f59e0b"/>
<text x="94" y="859" font-size="19" font-weight="700" fill="#f8fafc">Real-repository showcase</text>
<text x="94" y="886" font-size="14" fill="#94a3b8">SWE-agent · Google ADK · OpenHands</text>
<text class="mono" x="94" y="897" font-size="12" fill="#f59e0b">repository-audit-showcase/*</text>
</g>
<g filter="url(#shadow)">
<rect x="430" y="825" width="320" height="88" rx="18" fill="#111827" fill-opacity=".86" stroke="#ffffff" stroke-opacity=".12"/>
<rect x="430" y="825" width="5" height="88" rx="2.5" fill="#60a5fa"/>
<text x="454" y="859" font-size="19" font-weight="700" fill="#f8fafc">Project provenance</text>
<text x="454" y="886" font-size="14" fill="#94a3b8">Context · Decision · Evolve</text>
<text class="mono" x="454" y="897" font-size="12" fill="#60a5fa">context.py · decision.py · evolve.py</text>
</g>
<g filter="url(#shadow)">
<rect x="790" y="825" width="320" height="88" rx="18" fill="#111827" fill-opacity=".86" stroke="#ffffff" stroke-opacity=".12"/>
<rect x="790" y="825" width="5" height="88" rx="2.5" fill="#c084fc"/>
<text x="814" y="859" font-size="19" font-weight="700" fill="#f8fafc">Quality &amp; evolution experiments</text>
<text x="814" y="886" font-size="14" fill="#94a3b8">Quality · Learn · Replay</text>
<text class="mono" x="814" y="897" font-size="12" fill="#c084fc">quality.py · learn*.py</text>
</g>
<g filter="url(#shadow)">
<rect x="1150" y="825" width="340" height="88" rx="18" fill="#111827" fill-opacity=".86" stroke="#ffffff" stroke-opacity=".12"/>
<rect x="1150" y="825" width="5" height="88" rx="2.5" fill="#34d399"/>
<text x="1174" y="859" font-size="19" font-weight="700" fill="#f8fafc">Governed adoption</text>
<text x="1174" y="886" font-size="14" fill="#94a3b8">Gate · Shadow · Stage · Adopt</text>
<text class="mono" x="1174" y="897" font-size="12" fill="#34d399">gate_plan.py · evolution/*</text>
</g>
<path d="M230 261V355" fill="none" stroke="#60a5fa" stroke-width="2.4" stroke-linecap="round" stroke-linejoin="round" marker-end="url(#arrowBlue)"/>
<path d="M590 261V355" fill="none" stroke="#c084fc" stroke-width="2.4" stroke-linecap="round" stroke-linejoin="round" marker-end="url(#arrowPurple)"/>
<path d="M950 261V355" fill="none" stroke="#34d399" stroke-width="2.4" stroke-linecap="round" stroke-linejoin="round" marker-end="url(#arrowGreen)"/>
<path d="M390 407H430" fill="none" stroke="#60a5fa" stroke-width="2.4" stroke-linecap="round" stroke-linejoin="round" marker-end="url(#arrowBlue)"/>
<path d="M750 407H790" fill="none" stroke="#c084fc" stroke-width="2.4" stroke-linecap="round" stroke-linejoin="round" marker-end="url(#arrowPurple)"/>
<path d="M1110 407H1150" fill="none" stroke="#34d399" stroke-width="2.4" stroke-linecap="round" stroke-linejoin="round" marker-end="url(#arrowGreen)"/>
<path d="M1320 355V261" fill="none" stroke="#f59e0b" stroke-width="2.4" stroke-linecap="round" stroke-linejoin="round" marker-end="url(#arrowAmber)"/>
<path d="M230 585V495" fill="none" stroke="#34d399" stroke-width="2.4" stroke-linecap="round" stroke-linejoin="round" stroke-dasharray="8 8" marker-end="url(#arrowGreen)"/>
<path d="M590 585V495" fill="none" stroke="#60a5fa" stroke-width="2.4" stroke-linecap="round" stroke-linejoin="round" stroke-dasharray="8 8" marker-end="url(#arrowBlue)"/>
<path d="M950 585V495" fill="none" stroke="#c084fc" stroke-width="2.4" stroke-linecap="round" stroke-linejoin="round" stroke-dasharray="8 8" marker-end="url(#arrowPurple)"/>
<path d="M1320 585V495" fill="none" stroke="#f59e0b" stroke-width="2.4" stroke-linecap="round" stroke-linejoin="round" stroke-dasharray="8 8" marker-end="url(#arrowAmber)"/>
<rect x="1190" y="776" width="260" height="34" rx="17" fill="#f59e0b" fill-opacity=".13" stroke="#f59e0b" stroke-dasharray="6 6"/>
<text x="1320" y="798" text-anchor="middle" class="mono" font-size="12" font-weight="800" fill="#f59e0b">EXPLICIT COMMAND + HUMAN AUTHORITY</text>
<path d="M1490 213H1530V793H1450" fill="none" stroke="#f59e0b" stroke-width="2.4" stroke-linecap="round" stroke-linejoin="round" stroke-dasharray="8 8" marker-end="url(#arrowAmber)"/>
<text x="60" y="962" font-size="14" fill="#94a3b8">Solid: Quick path · dashed: protocol support / explicit Lab entry</text>
<text x="1540" y="962" text-anchor="end" font-size="14" font-weight="700" fill="#f8fafc">Local and read-only by default; only /aet-proof executes explicit argv</text>
</svg>